<?xml version="1.0" encoding="UTF-8" standalone="no"?><!-- Generator: Gravit.io --><svg xmlns="http://www.w3.org/2000/svg" xmlns:xlink="http://www.w3.org/1999/xlink" style="isolation:isolate" viewBox="0 0 77.6 122.6" width="77.6pt" height="122.6pt"><defs><clipPath id="_clipPath_YaWADorcn2KGAm7MEqgEHs9hnHBhoTB5"><rect width="77.6" height="122.6"/></clipPath></defs><g clip-path="url(#_clipPath_YaWADorcn2KGAm7MEqgEHs9hnHBhoTB5)"><rect width="77.6" height="122.6" style="fill:rgb(0,0,0)" fill-opacity="0"/><ellipse vector-effect="non-scaling-stroke" cx="40.00000000000001" cy="40" rx="34" ry="30.000000000000004" fill="rgb(255,255,255)"/><path d=" M 77.6 38.259 C 77.6 17.119 60.463 0 39.3 0 C 18.137 0 1 17.119 1 38.259 C 1 59.4 39.3 122.6 39.3 122.6 C 39.3 122.6 77.6 59.363 77.6 38.259 L 77.6 38.259 Z  M 15.33 39.625 C 15.33 26.4 26.062 15.68 39.3 15.68 C 52.538 15.68 63.27 26.4 63.27 39.625 C 63.27 52.87 52.522 63.569 39.3 63.569 C 26.078 63.569 15.33 52.87 15.33 39.625 L 15.33 39.625 Z " fill="rgb(255,99,0)"/></g></svg>